<svg width="186" height="30" viewBox="0 0 186 30" fill="none" xmlns="http://www.w3.org/2000/svg">
<path d="M34.6499 26V4.1H41.1599C42.6399 4.1 43.9199 4.38 44.9999 4.94C46.0999 5.5 46.9499 6.29 47.5499 7.31C48.1499 8.33 48.4499 9.54 48.4499 10.94V19.13C48.4499 20.51 48.1499 21.72 47.5499 22.76C46.9499 23.78 46.0999 24.58 44.9999 25.16C43.9199 25.72 42.6399 26 41.1599 26H34.6499ZM38.3999 22.55H41.1599C42.2399 22.55 43.0999 22.25 43.7399 21.65C44.3799 21.03 44.6999 20.19 44.6999 19.13V10.94C44.6999 9.9 44.3799 9.08 43.7399 8.48C43.0999 7.86 42.2399 7.55 41.1599 7.55H38.3999V22.55ZM51.4682 26V22.58H57.2282V12.89H52.2182V9.5H60.8282V22.58H65.9282V26H51.4682ZM58.7282 6.74C57.9682 6.74 57.3682 6.55 56.9282 6.17C56.4882 5.77 56.2682 5.24 56.2682 4.58C56.2682 3.92 56.4882 3.4 56.9282 3.02C57.3682 2.62 57.9682 2.42 58.7282 2.42C59.4882 2.42 60.0882 2.62 60.5282 3.02C60.9682 3.4 61.1882 3.92 61.1882 4.58C61.1882 5.24 60.9682 5.77 60.5282 6.17C60.0882 6.55 59.4882 6.74 58.7282 6.74ZM74.3465 26.27C73.0865 26.27 71.9865 26.07 71.0465 25.67C70.1065 25.27 69.3665 24.72 68.8265 24.02C68.3065 23.3 68.0265 22.46 67.9865 21.5H71.7365C71.7765 22.02 72.0265 22.44 72.4865 22.76C72.9665 23.08 73.5865 23.24 74.3465 23.24H75.6665C76.5865 23.24 77.2765 23.06 77.7365 22.7C78.1965 22.34 78.4265 21.85 78.4265 21.23C78.4265 20.65 78.2165 20.2 77.7965 19.88C77.3965 19.54 76.7665 19.32 75.9065 19.22L73.8665 18.92C71.9865 18.66 70.6065 18.16 69.7265 17.42C68.8465 16.68 68.4065 15.57 68.4065 14.09C68.4065 12.55 68.9265 11.36 69.9665 10.52C71.0065 9.66 72.5365 9.23 74.5565 9.23H75.6965C77.5365 9.23 79.0065 9.64 80.1065 10.46C81.2065 11.28 81.7965 12.38 81.8765 13.76H78.1265C78.0665 13.32 77.8165 12.96 77.3765 12.68C76.9565 12.4 76.3965 12.26 75.6965 12.26H74.5565C73.6965 12.26 73.0665 12.42 72.6665 12.74C72.2865 13.04 72.0965 13.49 72.0965 14.09C72.0965 14.65 72.2665 15.07 72.6065 15.35C72.9465 15.61 73.4965 15.8 74.2565 15.92L76.3865 16.22C78.3465 16.5 79.7865 17.03 80.7065 17.81C81.6465 18.57 82.1165 19.7 82.1165 21.2C82.1165 22.8 81.5665 24.05 80.4665 24.95C79.3865 25.83 77.7865 26.27 75.6665 26.27H74.3465ZM91.8548 26.3C90.4548 26.3 89.2248 26.04 88.1648 25.52C87.1248 24.98 86.3148 24.23 85.7348 23.27C85.1548 22.29 84.8648 21.14 84.8648 19.82V15.68C84.8648 14.34 85.1548 13.19 85.7348 12.23C86.3148 11.27 87.1248 10.53 88.1648 10.01C89.2248 9.47 90.4548 9.2 91.8548 9.2C93.9348 9.2 95.5948 9.74 96.8348 10.82C98.0748 11.88 98.7248 13.33 98.7848 15.17H95.0348C94.9748 14.31 94.6648 13.65 94.1048 13.19C93.5648 12.71 92.8148 12.47 91.8548 12.47C90.8548 12.47 90.0648 12.75 89.4848 13.31C88.9048 13.85 88.6148 14.63 88.6148 15.65V19.82C88.6148 20.84 88.9048 21.63 89.4848 22.19C90.0648 22.75 90.8548 23.03 91.8548 23.03C92.8148 23.03 93.5648 22.8 94.1048 22.34C94.6648 21.86 94.9748 21.19 95.0348 20.33H98.7848C98.7248 22.17 98.0748 23.63 96.8348 24.71C95.5948 25.77 93.9348 26.3 91.8548 26.3ZM108.553 26.27C107.153 26.27 105.933 26.01 104.893 25.49C103.873 24.95 103.073 24.2 102.493 23.24C101.933 22.26 101.653 21.11 101.653 19.79V15.71C101.653 14.39 101.933 13.25 102.493 12.29C103.073 11.31 103.873 10.56 104.893 10.04C105.933 9.5 107.153 9.23 108.553 9.23C109.973 9.23 111.193 9.5 112.213 10.04C113.233 10.56 114.023 11.31 114.583 12.29C115.163 13.25 115.453 14.38 115.453 15.68V19.79C115.453 21.11 115.163 22.26 114.583 23.24C114.023 24.2 113.233 24.95 112.213 25.49C111.193 26.01 109.973 26.27 108.553 26.27ZM108.553 23C109.553 23 110.323 22.73 110.863 22.19C111.423 21.63 111.703 20.83 111.703 19.79V15.71C111.703 14.65 111.423 13.85 110.863 13.31C110.323 12.77 109.553 12.5 108.553 12.5C107.573 12.5 106.803 12.77 106.243 13.31C105.683 13.85 105.403 14.65 105.403 15.71V19.79C105.403 20.83 105.683 21.63 106.243 22.19C106.803 22.73 107.573 23 108.553 23ZM126.751 26.3C125.391 26.3 124.311 25.92 123.511 25.16C122.711 24.38 122.311 23.32 122.311 21.98L123.151 22.85H122.311V26H118.651V4.1H122.401V8.72L122.281 12.65H123.151L122.311 13.52C122.311 12.18 122.711 11.13 123.511 10.37C124.311 9.59 125.391 9.2 126.751 9.2C128.411 9.2 129.741 9.77 130.741 10.91C131.741 12.05 132.241 13.59 132.241 15.53V20C132.241 21.92 131.741 23.45 130.741 24.59C129.741 25.73 128.411 26.3 126.751 26.3ZM125.431 23.06C126.391 23.06 127.141 22.78 127.681 22.22C128.221 21.66 128.491 20.86 128.491 19.82V15.68C128.491 14.64 128.221 13.84 127.681 13.28C127.141 12.72 126.391 12.44 125.431 12.44C124.491 12.44 123.751 12.73 123.211 13.31C122.671 13.87 122.401 14.66 122.401 15.68V19.82C122.401 20.84 122.671 21.64 123.211 22.22C123.751 22.78 124.491 23.06 125.431 23.06ZM142.13 26.27C140.73 26.27 139.51 26.01 138.47 25.49C137.45 24.95 136.65 24.2 136.07 23.24C135.51 22.26 135.23 21.11 135.23 19.79V15.71C135.23 14.39 135.51 13.25 136.07 12.29C136.65 11.31 137.45 10.56 138.47 10.04C139.51 9.5 140.73 9.23 142.13 9.23C143.55 9.23 144.77 9.5 145.79 10.04C146.81 10.56 147.6 11.31 148.16 12.29C148.74 13.25 149.03 14.38 149.03 15.68V19.79C149.03 21.11 148.74 22.26 148.16 23.24C147.6 24.2 146.81 24.95 145.79 25.49C144.77 26.01 143.55 26.27 142.13 26.27ZM142.13 23C143.13 23 143.9 22.73 144.44 22.19C145 21.63 145.28 20.83 145.28 19.79V15.71C145.28 14.65 145 13.85 144.44 13.31C143.9 12.77 143.13 12.5 142.13 12.5C141.15 12.5 140.38 12.77 139.82 13.31C139.26 13.85 138.98 14.65 138.98 15.71V19.79C138.98 20.83 139.26 21.63 139.82 22.19C140.38 22.73 141.15 23 142.13 23ZM158.918 26.27C157.518 26.27 156.298 26.01 155.258 25.49C154.238 24.95 153.438 24.2 152.858 23.24C152.298 22.26 152.018 21.11 152.018 19.79V15.71C152.018 14.39 152.298 13.25 152.858 12.29C153.438 11.31 154.238 10.56 155.258 10.04C156.298 9.5 157.518 9.23 158.918 9.23C160.338 9.23 161.558 9.5 162.578 10.04C163.598 10.56 164.388 11.31 164.948 12.29C165.528 13.25 165.818 14.38 165.818 15.68V19.79C165.818 21.11 165.528 22.26 164.948 23.24C164.388 24.2 163.598 24.95 162.578 25.49C161.558 26.01 160.338 26.27 158.918 26.27ZM158.918 23C159.918 23 160.688 22.73 161.228 22.19C161.788 21.63 162.068 20.83 162.068 19.79V15.71C162.068 14.65 161.788 13.85 161.228 13.31C160.688 12.77 159.918 12.5 158.918 12.5C157.938 12.5 157.168 12.77 156.608 13.31C156.048 13.85 155.768 14.65 155.768 15.71V19.79C155.768 20.83 156.048 21.63 156.608 22.19C157.168 22.73 157.938 23 158.918 23ZM169.106 26V4.1H172.856V15.98H175.466L179.486 9.5H183.686L178.706 17.48L183.776 26H179.486L175.466 19.16H172.856V26H169.106Z" fill="white"/>
<rect width="30" height="30" rx="2.4" fill="white"/>
<ellipse cx="10.9115" cy="15.9415" rx="2.29681" ry="2.55" transform="rotate(-5.03144 10.9115 15.9415)" fill="#002551"/>
<ellipse cx="2.29681" cy="2.55" rx="2.29681" ry="2.55" transform="matrix(-0.996147 -0.0877024 -0.0877024 0.996147 21.8232 13.6028)" fill="#002551"/>
</svg>
