<svg width="134" height="48" viewBox="0 0 134 48" fill="none" xmlns="http://www.w3.org/2000/svg">
<path d="M52.9263 14.2117H57.2578V22.9925H65.489V14.2117H69.8205V34.6915H65.489V26.722H57.2578V34.6915H52.9263V14.2117Z" fill="white"/>
<path d="M80.1978 18.1504C82.4094 18.1504 84.1891 19.001 85.4584 20.4274V18.5168H89.6068V34.3641H85.4584V32.4536C80.9175 37.5179 72.1367 33.4481 72.5686 26.4208C72.5293 21.7883 75.7747 18.1504 80.1978 18.1504ZM81.1008 31.001C86.8194 31.0272 86.8194 21.8145 81.1008 21.8538C75.4083 21.8145 75.4083 31.0272 81.1008 31.001Z" fill="white"/>
<path d="M106.304 18.8833L109.026 29.4831L111.774 18.8833H116.067L111.29 34.7306H106.959L104.211 24.4318L101.462 34.7306H97.1309L92.2891 18.8833H96.5813L99.3294 29.4831L102.051 18.8833H106.304Z" fill="white"/>
<path d="M131.862 18.8832C131.862 22.9792 130.776 25.6095 128.682 26.8788L133.105 34.6913H128.446L124.638 27.7556H123.029V34.6913H118.828V13.2954H123.029V24.17C125.777 24.2878 127.596 23.869 127.687 18.8701H131.862V18.8832Z" fill="white"/>
<path d="M26.6881 31.6948L23.4819 33.6969L4.86035 8.96411H10.8276C12.9476 8.96411 14.9759 9.95866 16.2453 11.6599L27.591 26.7613C28.7949 28.3578 28.3762 30.6348 26.6881 31.6948Z" fill="url(#paint0_linear_3226_7398)"/>
<path d="M26.3216 31.9303L23.4819 33.7231L4.86035 8.96411H9.12644C11.2464 8.96411 13.2747 9.95866 14.5441 11.6599L27.0152 28.2008C27.892 29.4178 27.591 31.119 26.3216 31.9303Z" fill="url(#paint1_linear_3226_7398)"/>
<path d="M44.7212 29.5484L15.2119 47.9999V45.5397C15.2119 43.2104 16.4289 41.025 18.3918 39.7818L35.888 28.8418C38.8586 26.9966 39.5783 23.0185 37.4976 20.2311L26.2043 5.2998H31.1639C33.2839 5.2998 35.3122 6.29435 36.5816 7.99555L46.2915 20.9378C48.4115 23.7251 47.6525 27.6902 44.7212 29.5484Z" fill="url(#paint2_linear_3226_7398)"/>
<path d="M42.3261 24.8505L41.3578 25.4525L35.8747 28.881C38.806 27.0359 39.5388 23.0577 37.445 20.2704L26.1909 5.2998H31.1506C33.2705 5.2998 35.2989 6.29435 36.5682 7.99555L43.6871 17.4438C45.4799 19.8516 44.8387 23.2409 42.3261 24.8505Z" fill="url(#paint3_linear_3226_7398)"/>
<path d="M34.3699 26.879L31.1638 28.8811L9.42773 0H15.395C17.515 0 19.5433 0.994547 20.8127 2.69575L35.3121 21.9324C36.4899 23.542 36.0581 25.819 34.3699 26.879Z" fill="url(#paint4_linear_3226_7398)"/>
<path d="M34.0035 27.1145L31.1638 28.9073L9.42773 0H13.6938C15.8138 0 17.8421 0.994547 19.1115 2.69575L34.6971 23.4242C35.5739 24.602 35.2729 26.3293 34.0035 27.1145Z" fill="url(#paint5_linear_3226_7398)"/>
<path d="M18.9937 36.5103L15.7875 38.5125L0.895508 18.7524H6.86279C8.98275 18.7524 11.0111 19.747 12.2805 21.4482L19.9097 31.603C21.0874 33.1734 20.6556 35.4504 18.9937 36.5103Z" fill="url(#paint6_linear_3226_7398)"/>
<path d="M18.6272 36.7197L15.7875 38.5125L0.895508 18.7524H5.16159C7.28155 18.7524 9.3099 19.747 10.5793 21.4482L19.2946 33.0556C20.2107 34.2334 19.8704 35.9346 18.6272 36.7197Z" fill="url(#paint7_linear_3226_7398)"/>
<path opacity="0.5" d="M28.5599 25.4264L10.6973 1.70117H12.8434C14.1782 1.70117 15.4214 2.34239 16.2327 3.40237L29.3974 20.9116C30.4966 22.3642 30.104 24.458 28.5599 25.4264Z" fill="url(#paint8_linear_3226_7398)"/>
<path opacity="0.5" d="M20.8649 30.2422L6.12988 10.6653H8.27601C9.6108 10.6653 10.854 11.3065 11.6653 12.3665L21.7155 25.7013C22.8016 27.18 22.4091 29.2738 20.8649 30.2422Z" fill="url(#paint9_linear_3226_7398)"/>
<path opacity="0.5" d="M13.1836 35.0578L2.16504 20.4536H4.31117C5.64596 20.4536 6.88914 21.0948 7.70048 22.1548L14.0211 30.543C15.1203 31.9694 14.7277 34.0894 13.1836 35.0578Z" fill="url(#paint10_linear_3226_7398)"/>
<defs>
<linearGradient id="paint0_linear_3226_7398" x1="7.86036" y1="6.4604" x2="27.4777" y2="33.2007" gradientUnits="userSpaceOnUse">
<stop stop-color="#FFC36D"/>
<stop offset="1" stop-color="#FF846D"/>
</linearGradient>
<linearGradient id="paint1_linear_3226_7398" x1="11.7063" y1="12.8877" x2="33.4622" y2="42.206" gradientUnits="userSpaceOnUse">
<stop stop-color="#FFC36D"/>
<stop offset="1" stop-color="#FF846D"/>
</linearGradient>
<linearGradient id="paint2_linear_3226_7398" x1="5.71134" y1="0.0731053" x2="34.9164" y2="40.184" gradientUnits="userSpaceOnUse">
<stop stop-color="white"/>
<stop offset="1" stop-color="white"/>
</linearGradient>
<linearGradient id="paint3_linear_3226_7398" x1="16.8004" y1="-7.59114" x2="40.5842" y2="24.2315" gradientUnits="userSpaceOnUse">
<stop stop-color="white"/>
<stop offset="1" stop-color="#DADADA" stop-opacity="0.7"/>
</linearGradient>
<linearGradient id="paint4_linear_3226_7398" x1="11.9159" y1="-3.03295" x2="43.9226" y2="39.8393" gradientUnits="userSpaceOnUse">
<stop stop-color="#FFC36D"/>
<stop offset="1" stop-color="#FF756D"/>
</linearGradient>
<linearGradient id="paint5_linear_3226_7398" x1="18.7412" y1="7.23681" x2="40.0916" y2="35.9657" gradientUnits="userSpaceOnUse">
<stop stop-color="#FFC36D"/>
<stop offset="1" stop-color="#FF846D"/>
</linearGradient>
<linearGradient id="paint6_linear_3226_7398" x1="3.27621" y1="15.6158" x2="21.2709" y2="39.7776" gradientUnits="userSpaceOnUse">
<stop stop-color="#FFC36D"/>
<stop offset="1" stop-color="#FF846D"/>
</linearGradient>
<linearGradient id="paint7_linear_3226_7398" x1="7.91386" y1="23.0002" x2="30.7019" y2="53.3494" gradientUnits="userSpaceOnUse">
<stop stop-color="#FFC36D"/>
<stop offset="1" stop-color="#FF846D"/>
</linearGradient>
<linearGradient id="paint8_linear_3226_7398" x1="12.7412" y1="1.49025" x2="32.5058" y2="28.0092" gradientUnits="userSpaceOnUse">
<stop stop-color="#FFEEA9"/>
<stop offset="1" stop-color="#FFC36D" stop-opacity="0"/>
</linearGradient>
<linearGradient id="paint9_linear_3226_7398" x1="8.33743" y1="10.422" x2="24.784" y2="33.2585" gradientUnits="userSpaceOnUse">
<stop stop-color="#FFEEA9"/>
<stop offset="1" stop-color="#FFC36D" stop-opacity="0"/>
</linearGradient>
<linearGradient id="paint10_linear_3226_7398" x1="4.21785" y1="20.3057" x2="16.6075" y2="36.88" gradientUnits="userSpaceOnUse">
<stop stop-color="#FFEEA9"/>
<stop offset="1" stop-color="#FFC36D" stop-opacity="0"/>
</linearGradient>
</defs>
</svg>
