<svg width="153" height="40" viewBox="0 0 153 40" fill="none" xmlns="http://www.w3.org/2000/svg">
<g clip-path="url(#clip0_3226_7453)">
<mask id="mask0_3226_7453" style="mask-type:luminance" maskUnits="userSpaceOnUse" x="0" y="0" width="153" height="40">
<path d="M152.104 0.5H0.104492V39.5H152.104V0.5Z" fill="white"/>
</mask>
<g mask="url(#mask0_3226_7453)">
<path d="M24.8123 15.3775L18.2665 20.9402L17.7363 21.3848L11.8528 26.2969H11.8506L5.02587 31.9993L7.33201 28.4919L12.2935 20.9402H5.33463L8.99298 15.3775H4.18262L7.55559 10.2463H22.7766L18.5902 15.3775H24.8123Z" fill="white"/>
<g style="mix-blend-mode:soft-light">
<path d="M11.8528 26.2971L17.7363 21.3851L18.2665 20.9405L24.8102 15.3777H24.8123H21.8077L5.02588 31.9995L11.8506 26.2971H11.8528Z" fill="white"/>
</g>
<g style="mix-blend-mode:multiply" opacity="0.4">
<path d="M6.23536 12.2549H15.5494L11.6696 17.3902L17.8066 17.3666L5.02587 31.9995L12.2935 20.9406H5.33463L8.99298 15.3777H4.18262L6.23536 12.2549Z" fill="white"/>
</g>
<g style="mix-blend-mode:soft-light">
<path d="M18.5895 15.3775H16.311L20.5294 10.2463H22.7759L18.5895 15.3775Z" fill="white"/>
</g>
<g style="mix-blend-mode:lighten" opacity="0.1">
<path d="M5.76051 12.9763H13.7692L9.86384 18.2534H15.773L5.02587 31.9993L12.2935 20.9403H5.33463L8.99298 15.3775H4.18262L5.76051 12.9763Z" fill="#FFEA71"/>
</g>
<g style="mix-blend-mode:overlay" opacity="0.15">
<path d="M8.1264 19.2715L11.7847 13.7065H5.27938L5.06006 14.0416H11.1672L7.50887 19.6044H13.1773L13.3988 19.2715H8.1264Z" fill="white"/>
</g>
<g style="mix-blend-mode:multiply" opacity="0.6">
<path d="M7.50875 19.6049L11.167 14.0421H5.05994L5.17066 13.8745L4.18262 15.3779H8.99298L5.33463 20.9408H12.2935L13.173 19.6049H7.50875Z" fill="white"/>
</g>
<path d="M38.5104 10.2467C37.9226 7.48734 36.4146 5.01467 34.238 3.241C32.0613 1.46734 29.3477 0.49989 26.5496 0.5H4.41866L0.104492 7.06367H26.5496C27.6238 7.06209 28.6763 7.36901 29.5839 7.94855C29.8027 8.08809 30.0118 8.24237 30.21 8.41033C30.3101 8.4941 30.4059 8.58215 30.4996 8.67236C30.6381 8.80768 30.7701 8.95157 30.8957 9.10194C31.1051 9.35171 31.2932 9.61897 31.4578 9.90089C31.5246 10.0155 31.5863 10.1315 31.6431 10.2489C31.7155 10.3927 31.7815 10.5409 31.8411 10.6913C32.3103 11.8947 32.365 13.2221 31.9965 14.4607C31.9036 14.7737 31.7832 15.0778 31.6367 15.3692C31.1192 16.4176 30.2958 17.2811 29.2773 17.8434C29.1155 17.9315 28.9494 18.011 28.7791 18.084H28.7663L22.8891 20.9405L22.7252 21.02L19.2351 22.7147L18.1703 23.2323L18.8433 22.4204L20.0954 20.9405L20.9471 19.9225L23.0765 17.4053L23.0978 17.3795L24.8013 15.3756L18.2661 20.9405L17.7359 21.3851L11.8524 26.2993L5.03832 31.9996L0.104492 39.4868L7.46158 35.8806L31.23 24.2332L32.5268 23.5888C34.8049 22.2975 36.6142 20.3056 37.6907 17.9039C38.7671 15.5021 39.0543 12.8161 38.5104 10.2381V10.2467Z" fill="white"/>
<path d="M35.525 12.835C35.525 10.4339 34.5794 8.1313 32.8961 6.43354C31.2129 4.73578 28.93 3.78198 26.5496 3.78198H2.27436L0.104492 7.06382H26.5496C27.8151 7.06199 29.0451 7.48575 30.045 8.26809C31.0449 9.05043 31.7577 10.1467 32.0708 11.3835C32.3837 12.6202 32.279 13.927 31.773 15.097C31.2671 16.267 30.3889 17.2335 29.2773 17.8436C29.1155 17.9317 28.9494 18.0112 28.779 18.0842H28.7662L22.8891 20.9407L22.7209 21.0224L19.2308 22.717L18.1661 23.2346L18.8433 22.4206L20.0954 20.9407L20.9471 19.9227L23.0978 17.3797L24.8013 15.3758L20.2337 19.2676L18.2661 20.9407L17.7359 21.3853L11.8524 26.2995L5.03832 31.9997L29.9034 21.2392C31.5649 20.5642 32.9881 19.403 33.99 17.9053C34.9918 16.4075 35.5264 14.6417 35.525 12.835Z" fill="white"/>
<path d="M24.8123 15.3775L18.2665 20.9402L17.7363 21.3848L11.8528 26.2969H11.8506L5.02587 31.9993L7.33201 28.4919L12.2935 20.9402H5.33463L8.99298 15.3775H4.18262L7.55559 10.2463H22.7766L18.5902 15.3775H24.8123Z" fill="white"/>
<g style="mix-blend-mode:soft-light">
<path d="M11.8528 26.2971L17.7363 21.3851L18.2665 20.9405L24.8102 15.3777H24.8123H21.8077L5.02588 31.9995L11.8506 26.2971H11.8528Z" fill="white"/>
</g>
<g style="mix-blend-mode:multiply" opacity="0.4">
<path d="M6.23536 12.2549H15.5494L11.6696 17.3902L17.8066 17.3666L5.02587 31.9995L12.2935 20.9406H5.33463L8.99298 15.3777H4.18262L6.23536 12.2549Z" fill="white"/>
</g>
<g style="mix-blend-mode:soft-light">
<path d="M18.5895 15.3775H16.311L20.5294 10.2463H22.7759L18.5895 15.3775Z" fill="white"/>
</g>
<g style="mix-blend-mode:lighten" opacity="0.1">
<path d="M5.76051 12.9763H13.7692L9.86384 18.2534H15.773L5.02587 31.9993L12.2935 20.9403H5.33463L8.99298 15.3775H4.18262L5.76051 12.9763Z" fill="#FFEA71"/>
</g>
<g style="mix-blend-mode:overlay" opacity="0.15">
<path d="M8.1264 19.2715L11.7847 13.7065H5.27938L5.06006 14.0416H11.1672L7.50887 19.6044H13.1773L13.3988 19.2715H8.1264Z" fill="white"/>
</g>
<g style="mix-blend-mode:multiply" opacity="0.6">
<path d="M7.50875 19.6049L11.167 14.0421H5.05994L5.17066 13.8745L4.18262 15.3779H8.99298L5.33463 20.9408H12.2935L13.173 19.6049H7.50875Z" fill="white"/>
</g>
<path d="M47.8301 23.255V5.0791H54.7443C60.1087 5.0791 63.7732 8.7782 63.7732 14.1656C63.7732 19.553 60.1057 23.255 54.7386 23.255H47.8301ZM54.3554 18.9951C57.0952 18.9951 58.8582 17.2516 58.8582 14.1656C58.8582 11.0796 57.0952 9.35068 54.3554 9.35068H52.719V18.9951H54.3554Z" fill="white"/>
<path d="M75.8273 5.0791L81.8773 23.255H76.8558L75.8532 19.768H70.4601L69.469 23.255H64.436L70.486 5.0791H75.8273ZM71.4886 16.0224H74.8363L73.1624 10.1933L71.4886 16.0224Z" fill="white"/>
<path d="M97.9664 5.07981C97.9664 9.53444 97.0133 12.6611 94.9047 14.3494L99.2401 23.2557H94.0227L90.4767 15.8429H88.8661V23.2557H83.9683V5.07981H88.8661V11.5801H89.497C91.9167 11.5801 93.0747 9.80178 93.0747 5.0769L97.9664 5.07981Z" fill="white"/>
<path d="M108.793 5.0791C114.157 5.0791 118.263 9.04554 118.263 14.1656C118.263 19.2857 114.157 23.255 108.793 23.255C103.429 23.255 99.3237 19.2886 99.3237 14.1656C99.3237 9.04263 103.429 5.0791 108.793 5.0791ZM108.793 19.1375C111.481 19.1375 113.521 17.0045 113.521 14.1656C113.521 11.3266 111.481 9.19665 108.793 9.19665C106.105 9.19665 104.065 11.3295 104.065 14.1656C104.065 17.0016 106.105 19.1345 108.793 19.1345V19.1375Z" fill="white"/>
<path d="M127.767 9.32454H120.778V5.0791H133.573V8.93511L126.198 19.0096H133.832V23.255H120.393V19.399L127.767 9.32454Z" fill="white"/>
<path d="M146.626 5.0791L152.676 23.255H147.657L146.652 19.768H141.271L140.28 23.255H135.235L141.299 5.0791H146.626ZM142.305 16.0224H145.65L143.976 10.1933L142.305 16.0224Z" fill="white"/>
</g>
</g>
<defs>
<clipPath id="clip0_3226_7453">
<rect width="152" height="39" fill="white" transform="translate(0.104492 0.5)"/>
</clipPath>
</defs>
</svg>
