<svg width="48" height="48" viewBox="0 0 48 48" fill="none" xmlns="http://www.w3.org/2000/svg">
<path d="M24 4C18.7166 4.06738 13.6686 6.19615 9.93237 9.93237C6.19615 13.6686 4.06738 18.7166 4 24C4.0247 27.0778 4.75944 30.1084 6.14702 32.8558C7.53461 35.6033 9.53758 37.9933 12 39.84V40H12.2C15.5864 42.595 19.7337 44.0013 24 44.0013C28.2663 44.0013 32.4136 42.595 35.8 40H36V39.84C38.4624 37.9933 40.4654 35.6033 41.853 32.8558C43.2406 30.1084 43.9753 27.0778 44 24C43.9326 18.7166 41.8039 13.6686 38.0676 9.93237C34.3314 6.19615 29.2834 4.06738 24 4ZM16.14 37.86C16.432 36.5229 17.1723 35.3258 18.2382 34.4673C19.304 33.6087 20.6314 33.1404 22 33.14H26C27.3686 33.1404 28.696 33.6087 29.7618 34.4673C30.8277 35.3258 31.568 36.5229 31.86 37.86C29.4777 39.2616 26.764 40.0007 24 40.0007C21.236 40.0007 18.5223 39.2616 16.14 37.86ZM35.22 35.28C34.4593 33.4619 33.1782 31.9091 31.5378 30.8167C29.8975 29.7243 27.9708 29.141 26 29.14H22C20.0292 29.141 18.1025 29.7243 16.4622 30.8167C14.8218 31.9091 13.5407 33.4619 12.78 35.28C11.2813 33.806 10.0878 32.0511 9.26763 30.1156C8.44745 28.1801 8.0167 26.102 8 24C8.05188 19.7727 9.75424 15.7331 12.7437 12.7437C15.7331 9.75424 19.7727 8.05188 24 8C28.2273 8.05188 32.2669 9.75424 35.2563 12.7437C38.2458 15.7331 39.9481 19.7727 40 24C39.9833 26.102 39.5525 28.1801 38.7324 30.1156C37.9122 32.0511 36.7187 33.806 35.22 35.28Z" fill="#3D87FF"/>
<path d="M24.0002 12.0002C22.9429 11.9755 21.8915 12.1656 20.9098 12.5589C19.9281 12.9523 19.0363 13.5406 18.2885 14.2885C17.5406 15.0363 16.9523 15.9281 16.5589 16.9098C16.1656 17.8915 15.9755 18.9429 16.0002 20.0002C15.9755 21.0575 16.1656 22.1088 16.5589 23.0905C16.9523 24.0723 17.5406 24.964 18.2885 25.7119C19.0363 26.4597 19.9281 27.0481 20.9098 27.4414C21.8915 27.8347 22.9429 28.0248 24.0002 28.0002C25.0575 28.0248 26.1088 27.8347 27.0905 27.4414C28.0723 27.0481 28.964 26.4597 29.7119 25.7119C30.4597 24.964 31.0481 24.0723 31.4414 23.0905C31.8347 22.1088 32.0248 21.0575 32.0002 20.0002C32.0248 18.9429 31.8347 17.8915 31.4414 16.9098C31.0481 15.9281 30.4597 15.0363 29.7119 14.2885C28.964 13.5406 28.0723 12.9523 27.0905 12.5589C26.1088 12.1656 25.0575 11.9755 24.0002 12.0002ZM24.0002 24.0002C23.4681 24.0259 22.9365 23.94 22.4395 23.7481C21.9426 23.5562 21.4913 23.2625 21.1146 22.8858C20.7379 22.5091 20.4441 22.0578 20.2522 21.5608C20.0603 21.0639 19.9744 20.5323 20.0002 20.0002C19.9744 19.4681 20.0603 18.9365 20.2522 18.4395C20.4441 17.9426 20.7379 17.4913 21.1146 17.1146C21.4913 16.7379 21.9426 16.4441 22.4395 16.2522C22.9365 16.0603 23.4681 15.9744 24.0002 16.0002C24.5323 15.9744 25.0639 16.0603 25.5608 16.2522C26.0578 16.4441 26.5091 16.7379 26.8858 17.1146C27.2625 17.4913 27.5562 17.9426 27.7481 18.4395C27.94 18.9365 28.0259 19.4681 28.0002 20.0002C28.0259 20.5323 27.94 21.0639 27.7481 21.5608C27.5562 22.0578 27.2625 22.5091 26.8858 22.8858C26.5091 23.2625 26.0578 23.5562 25.5608 23.7481C25.0639 23.94 24.5323 24.0259 24.0002 24.0002Z" fill="#3D87FF"/>
</svg>
