<svg width="48" height="48" viewBox="0 0 48 48" fill="none" xmlns="http://www.w3.org/2000/svg">
<path d="M40.0098 11.9902H38.0098V15.9902H40.0098V31.9902H38.0098V35.9902H40.0098C42.2158 35.9902 44.0098 34.1962 44.0098 31.9902V15.9902C44.0098 13.7862 42.2138 11.9902 40.0098 11.9902ZM12.0098 19.9902H29.9998V27.9902H12.0098V19.9902Z" fill="#3D87FF"/>
<path d="M34.0098 35.99V8H39.9998V4H23.9998V8H30.0098V11.99H8.00977C5.80377 11.99 4.00977 13.784 4.00977 15.99V31.99C4.00977 34.196 5.80377 35.99 8.00977 35.99H30.0098V40H23.9998V44H39.9998V40H34.0098V35.99ZM8.00977 31.99V15.99H30.0098V31.99H8.00977Z" fill="#3D87FF"/>
</svg>
